<svg xmlns="http://www.w3.org/2000/svg" xmlns:xlink="http://www.w3.org/1999/xlink" width="2000" zoomAndPan="magnify" viewBox="0 0 1500 1499.999933" height="2000" preserveAspectRatio="xMidYMid meet" version="1.0"><defs><g/><clipPath id="id1"><path d="M 70.453125 70.453125 L 1429.453125 70.453125 L 1429.453125 1429.453125 L 70.453125 1429.453125 Z M 70.453125 70.453125 " clip-rule="nonzero"/></clipPath></defs><g clip-path="url(#id1)"><path fill="rgb(0%, 0%, 0%)" d="M 1429.453125 749.953125 C 1429.453125 761.074219 1429.179688 772.1875 1428.636719 783.296875 C 1428.089844 794.402344 1427.273438 805.488281 1426.183594 816.558594 C 1425.09375 827.625 1423.730469 838.65625 1422.101562 849.65625 C 1420.46875 860.65625 1418.566406 871.609375 1416.398438 882.519531 C 1414.226562 893.425781 1411.792969 904.273438 1409.089844 915.058594 C 1406.386719 925.847656 1403.421875 936.5625 1400.195312 947.203125 C 1396.96875 957.84375 1393.480469 968.402344 1389.734375 978.871094 C 1385.988281 989.339844 1381.984375 999.714844 1377.730469 1009.988281 C 1373.472656 1020.261719 1368.96875 1030.425781 1364.214844 1040.476562 C 1359.460938 1050.53125 1354.460938 1060.460938 1349.21875 1070.269531 C 1343.976562 1080.074219 1338.496094 1089.75 1332.78125 1099.285156 C 1327.0625 1108.824219 1321.117188 1118.21875 1314.9375 1127.464844 C 1308.757812 1136.710938 1302.359375 1145.800781 1295.734375 1154.730469 C 1289.109375 1163.664062 1282.269531 1172.429688 1275.214844 1181.023438 C 1268.160156 1189.621094 1260.898438 1198.039062 1253.429688 1206.277344 C 1245.960938 1214.519531 1238.296875 1222.570312 1230.433594 1230.433594 C 1222.570312 1238.296875 1214.519531 1245.960938 1206.277344 1253.429688 C 1198.039062 1260.898438 1189.621094 1268.160156 1181.023438 1275.214844 C 1172.429688 1282.269531 1163.664062 1289.109375 1154.730469 1295.734375 C 1145.800781 1302.359375 1136.710938 1308.757812 1127.464844 1314.9375 C 1118.21875 1321.117188 1108.824219 1327.0625 1099.285156 1332.78125 C 1089.75 1338.496094 1080.074219 1343.976562 1070.269531 1349.21875 C 1060.460938 1354.460938 1050.53125 1359.460938 1040.476562 1364.214844 C 1030.425781 1368.96875 1020.261719 1373.472656 1009.988281 1377.730469 C 999.714844 1381.984375 989.339844 1385.988281 978.871094 1389.734375 C 968.398438 1393.480469 957.84375 1396.96875 947.203125 1400.195312 C 936.5625 1403.421875 925.847656 1406.386719 915.058594 1409.089844 C 904.273438 1411.792969 893.425781 1414.226562 882.519531 1416.398438 C 871.609375 1418.566406 860.65625 1420.46875 849.65625 1422.097656 C 838.65625 1423.730469 827.625 1425.09375 816.558594 1426.183594 C 805.488281 1427.273438 794.402344 1428.089844 783.296875 1428.636719 C 772.1875 1429.179688 761.074219 1429.453125 749.953125 1429.453125 C 738.832031 1429.453125 727.71875 1429.179688 716.613281 1428.636719 C 705.503906 1428.089844 694.417969 1427.273438 683.351562 1426.183594 C 672.285156 1425.09375 661.25 1423.730469 650.25 1422.097656 C 639.25 1420.46875 628.296875 1418.566406 617.390625 1416.398438 C 606.484375 1414.226562 595.636719 1411.792969 584.847656 1409.089844 C 574.0625 1406.386719 563.347656 1403.421875 552.707031 1400.195312 C 542.0625 1396.96875 531.507812 1393.480469 521.039062 1389.734375 C 510.566406 1385.988281 500.195312 1381.984375 489.921875 1377.730469 C 479.648438 1373.472656 469.484375 1368.96875 459.429688 1364.214844 C 449.378906 1359.460938 439.449219 1354.460938 429.640625 1349.21875 C 419.832031 1343.976562 410.160156 1338.496094 400.621094 1332.78125 C 391.082031 1327.0625 381.691406 1321.117188 372.445312 1314.9375 C 363.199219 1308.757812 354.109375 1302.359375 345.175781 1295.734375 C 336.246094 1289.109375 327.480469 1282.269531 318.882812 1275.214844 C 310.289062 1268.160156 301.871094 1260.898438 293.628906 1253.429688 C 285.390625 1245.960938 277.339844 1238.296875 269.476562 1230.433594 C 261.613281 1222.570312 253.945312 1214.519531 246.476562 1206.277344 C 239.011719 1198.039062 231.75 1189.621094 224.695312 1181.023438 C 217.640625 1172.429688 210.800781 1163.664062 204.175781 1154.730469 C 197.550781 1145.800781 191.148438 1136.710938 184.972656 1127.464844 C 178.792969 1118.21875 172.84375 1108.824219 167.128906 1099.285156 C 161.410156 1089.75 155.929688 1080.074219 150.6875 1070.269531 C 145.445312 1060.460938 140.449219 1050.53125 135.695312 1040.476562 C 130.9375 1030.425781 126.433594 1020.261719 122.179688 1009.988281 C 117.921875 999.714844 113.921875 989.339844 110.175781 978.871094 C 106.429688 968.398438 102.941406 957.84375 99.714844 947.203125 C 96.484375 936.5625 93.519531 925.847656 90.816406 915.058594 C 88.117188 904.273438 85.679688 893.425781 83.511719 882.519531 C 81.339844 871.609375 79.441406 860.65625 77.808594 849.65625 C 76.175781 838.65625 74.816406 827.625 73.726562 816.558594 C 72.636719 805.488281 71.820312 794.402344 71.273438 783.296875 C 70.726562 772.1875 70.453125 761.074219 70.453125 749.953125 C 70.453125 738.832031 70.726562 727.71875 71.273438 716.613281 C 71.820312 705.503906 72.636719 694.417969 73.726562 683.351562 C 74.816406 672.285156 76.175781 661.25 77.808594 650.25 C 79.441406 639.25 81.339844 628.296875 83.511719 617.390625 C 85.679688 606.484375 88.117188 595.636719 90.816406 584.847656 C 93.519531 574.0625 96.484375 563.347656 99.714844 552.707031 C 102.941406 542.0625 106.429688 531.507812 110.175781 521.039062 C 113.921875 510.566406 117.921875 500.195312 122.179688 489.921875 C 126.433594 479.648438 130.9375 469.484375 135.695312 459.429688 C 140.449219 449.378906 145.445312 439.449219 150.6875 429.640625 C 155.929688 419.832031 161.410156 410.160156 167.128906 400.621094 C 172.84375 391.082031 178.792969 381.691406 184.972656 372.445312 C 191.148438 363.199219 197.550781 354.109375 204.175781 345.175781 C 210.800781 336.246094 217.640625 327.480469 224.695312 318.882812 C 231.75 310.289062 239.011719 301.871094 246.476562 293.628906 C 253.945312 285.390625 261.613281 277.339844 269.476562 269.476562 C 277.339844 261.613281 285.390625 253.945312 293.628906 246.476562 C 301.871094 239.011719 310.289062 231.75 318.882812 224.695312 C 327.480469 217.640625 336.246094 210.800781 345.175781 204.175781 C 354.109375 197.550781 363.199219 191.148438 372.445312 184.972656 C 381.691406 178.792969 391.082031 172.84375 400.621094 167.128906 C 410.160156 161.410156 419.832031 155.929688 429.640625 150.6875 C 439.449219 145.445312 449.378906 140.449219 459.429688 135.695312 C 469.484375 130.9375 479.648438 126.433594 489.921875 122.179688 C 500.195312 117.921875 510.566406 113.921875 521.039062 110.175781 C 531.507812 106.429688 542.0625 102.941406 552.707031 99.714844 C 563.347656 96.484375 574.0625 93.519531 584.847656 90.816406 C 595.636719 88.117188 606.484375 85.679688 617.390625 83.511719 C 628.296875 81.339844 639.25 79.441406 650.25 77.808594 C 661.25 76.175781 672.285156 74.816406 683.351562 73.726562 C 694.417969 72.636719 705.503906 71.820312 716.613281 71.273438 C 727.71875 70.726562 738.832031 70.453125 749.953125 70.453125 C 761.074219 70.453125 772.1875 70.726562 783.296875 71.273438 C 794.402344 71.820312 805.488281 72.636719 816.558594 73.726562 C 827.625 74.816406 838.65625 76.175781 849.65625 77.808594 C 860.65625 79.441406 871.609375 81.339844 882.519531 83.511719 C 893.425781 85.679688 904.273438 88.117188 915.058594 90.816406 C 925.847656 93.519531 936.5625 96.484375 947.203125 99.714844 C 957.84375 102.941406 968.398438 106.429688 978.871094 110.175781 C 989.339844 113.921875 999.714844 117.921875 1009.988281 122.179688 C 1020.261719 126.433594 1030.425781 130.9375 1040.476562 135.695312 C 1050.53125 140.449219 1060.460938 145.445312 1070.269531 150.6875 C 1080.074219 155.929688 1089.75 161.410156 1099.289062 167.128906 C 1108.824219 172.84375 1118.21875 178.792969 1127.464844 184.972656 C 1136.710938 191.148438 1145.800781 197.550781 1154.730469 204.175781 C 1163.664062 210.800781 1172.429688 217.640625 1181.023438 224.695312 C 1189.621094 231.75 1198.039062 239.011719 1206.277344 246.476562 C 1214.519531 253.945312 1222.570312 261.613281 1230.433594 269.476562 C 1238.296875 277.339844 1245.960938 285.390625 1253.429688 293.628906 C 1260.898438 301.871094 1268.160156 310.289062 1275.214844 318.882812 C 1282.269531 327.480469 1289.109375 336.246094 1295.734375 345.175781 C 1302.359375 354.109375 1308.757812 363.199219 1314.9375 372.445312 C 1321.117188 381.691406 1327.0625 391.082031 1332.78125 400.621094 C 1338.496094 410.160156 1343.976562 419.832031 1349.21875 429.640625 C 1354.460938 439.449219 1359.460938 449.378906 1364.214844 459.429688 C 1368.96875 469.484375 1373.472656 479.648438 1377.730469 489.921875 C 1381.984375 500.195312 1385.988281 510.566406 1389.734375 521.039062 C 1393.480469 531.507812 1396.96875 542.0625 1400.195312 552.707031 C 1403.421875 563.347656 1406.386719 574.0625 1409.089844 584.847656 C 1411.792969 595.636719 1414.226562 606.484375 1416.398438 617.390625 C 1418.566406 628.296875 1420.46875 639.25 1422.101562 650.25 C 1423.730469 661.25 1425.09375 672.285156 1426.183594 683.351562 C 1427.273438 694.417969 1428.089844 705.503906 1428.636719 716.613281 C 1429.179688 727.71875 1429.453125 738.832031 1429.453125 749.953125 Z M 1429.453125 749.953125 " fill-opacity="1" fill-rule="nonzero"/></g><g fill="rgb(38.038635%, 95.689392%, 87.059021%)" fill-opacity="1"><g transform="translate(147.111408, 1090.81117)"><g><path d="M 901.273438 -829.835938 L 469.71875 -829.835938 C 413.941406 -829.835938 390.453125 -796.566406 390.453125 -765.25 C 390.453125 -735.894531 411.984375 -707.515625 447.210938 -707.515625 L 505.925781 -707.515625 L 446.234375 -549.964844 L 401.21875 -549.964844 C 348.375 -549.964844 322.933594 -517.671875 322.933594 -486.355469 C 322.933594 -456.019531 346.417969 -426.660156 393.390625 -426.660156 L 403.175781 -426.660156 L 337.609375 -244.644531 C 304.339844 -152.660156 265.195312 -135.042969 214.308594 -135.042969 C 179.082031 -135.042969 154.617188 -158.53125 145.808594 -182.015625 C 147.765625 -188.867188 148.746094 -195.714844 148.746094 -202.566406 C 148.746094 -247.582031 108.621094 -274.980469 70.457031 -274.980469 C 31.316406 -274.980469 -7.828125 -247.582031 -7.828125 -184.953125 C -7.828125 -91.988281 85.136719 0 213.332031 0 C 314.125 0 412.960938 -45.992188 468.742188 -202.566406 C 492.226562 -271.066406 524.519531 -359.140625 548.984375 -427.640625 L 607.699219 -427.640625 C 667.394531 -427.640625 690.878906 -461.890625 690.878906 -494.183594 C 690.878906 -522.5625 672.285156 -549.964844 642.929688 -549.964844 L 592.042969 -549.964844 L 646.84375 -707.515625 L 876.808594 -707.515625 C 931.609375 -709.472656 955.097656 -740.785156 955.097656 -772.101562 C 955.097656 -801.457031 934.546875 -829.835938 901.273438 -829.835938 Z M 901.273438 -829.835938 "/></g></g></g><g fill="rgb(43.139648%, 47.059631%, 100%)" fill-opacity="1"><g transform="translate(178.671116, 1117.051208)"><g><path d="M 901.273438 -829.835938 L 469.71875 -829.835938 C 413.941406 -829.835938 390.453125 -796.566406 390.453125 -765.25 C 390.453125 -735.894531 411.984375 -707.515625 447.210938 -707.515625 L 505.925781 -707.515625 L 446.234375 -549.964844 L 401.21875 -549.964844 C 348.375 -549.964844 322.933594 -517.671875 322.933594 -486.355469 C 322.933594 -456.019531 346.417969 -426.660156 393.390625 -426.660156 L 403.175781 -426.660156 L 337.609375 -244.644531 C 304.339844 -152.660156 265.195312 -135.042969 214.308594 -135.042969 C 179.082031 -135.042969 154.617188 -158.53125 145.808594 -182.015625 C 147.765625 -188.867188 148.746094 -195.714844 148.746094 -202.566406 C 148.746094 -247.582031 108.621094 -274.980469 70.457031 -274.980469 C 31.316406 -274.980469 -7.828125 -247.582031 -7.828125 -184.953125 C -7.828125 -91.988281 85.136719 0 213.332031 0 C 314.125 0 412.960938 -45.992188 468.742188 -202.566406 C 492.226562 -271.066406 524.519531 -359.140625 548.984375 -427.640625 L 607.699219 -427.640625 C 667.394531 -427.640625 690.878906 -461.890625 690.878906 -494.183594 C 690.878906 -522.5625 672.285156 -549.964844 642.929688 -549.964844 L 592.042969 -549.964844 L 646.84375 -707.515625 L 876.808594 -707.515625 C 931.609375 -709.472656 955.097656 -740.785156 955.097656 -772.101562 C 955.097656 -801.457031 934.546875 -829.835938 901.273438 -829.835938 Z M 901.273438 -829.835938 "/></g></g></g><g fill="rgb(38.038635%, 40.779114%, 71.369934%)" fill-opacity="1"><g transform="translate(215.478497, 1147.000932)"><g><path d="M 901.273438 -829.835938 L 469.71875 -829.835938 C 413.941406 -829.835938 390.453125 -796.566406 390.453125 -765.25 C 390.453125 -735.894531 411.984375 -707.515625 447.210938 -707.515625 L 505.925781 -707.515625 L 446.234375 -549.964844 L 401.21875 -549.964844 C 348.375 -549.964844 322.933594 -517.671875 322.933594 -486.355469 C 322.933594 -456.019531 346.417969 -426.660156 393.390625 -426.660156 L 403.175781 -426.660156 L 337.609375 -244.644531 C 304.339844 -152.660156 265.195312 -135.042969 214.308594 -135.042969 C 179.082031 -135.042969 154.617188 -158.53125 145.808594 -182.015625 C 147.765625 -188.867188 148.746094 -195.714844 148.746094 -202.566406 C 148.746094 -247.582031 108.621094 -274.980469 70.457031 -274.980469 C 31.316406 -274.980469 -7.828125 -247.582031 -7.828125 -184.953125 C -7.828125 -91.988281 85.136719 0 213.332031 0 C 314.125 0 412.960938 -45.992188 468.742188 -202.566406 C 492.226562 -271.066406 524.519531 -359.140625 548.984375 -427.640625 L 607.699219 -427.640625 C 667.394531 -427.640625 690.878906 -461.890625 690.878906 -494.183594 C 690.878906 -522.5625 672.285156 -549.964844 642.929688 -549.964844 L 592.042969 -549.964844 L 646.84375 -707.515625 L 876.808594 -707.515625 C 931.609375 -709.472656 955.097656 -740.785156 955.097656 -772.101562 C 955.097656 -801.457031 934.546875 -829.835938 901.273438 -829.835938 Z M 901.273438 -829.835938 "/></g></g></g><g fill="rgb(38.038635%, 40.779114%, 71.369934%)" fill-opacity="1"><g transform="translate(742.115009, 952.488642)"><g><path d="M 101.398438 -58 C 93.796875 -38.398438 83.597656 -23.800781 75.199219 -23.800781 C 72.398438 -23.800781 71 -26.398438 71 -29.199219 C 71 -30.398438 71.199219 -32 71.796875 -33.597656 L 83.597656 -66.398438 C 84.796875 -70.398438 85.597656 -74 85.597656 -77.398438 C 85.597656 -96.398438 61.597656 -104.398438 50.398438 -107.796875 C 51 -109.398438 51.199219 -111.195312 51.199219 -112.796875 C 51.199219 -121.996094 43 -129.796875 34 -129.796875 C 22.199219 -129.796875 15.199219 -119.398438 15.199219 -107.996094 C 15.199219 -102.996094 17 -97.796875 20.199219 -93.796875 L 5.601562 -54.398438 C 5.199219 -52.796875 5 -51.199219 5 -50 C 5 -43.398438 10.199219 -40 15.800781 -40 C 21.398438 -40 27.199219 -43.199219 29.597656 -49.597656 L 40.800781 -79.597656 C 46.398438 -77.796875 53.796875 -76.398438 53.796875 -69.597656 C 53.796875 -68.597656 53.597656 -67.398438 53.199219 -66 L 44.398438 -41.597656 C 42.800781 -37 42 -32.800781 42 -28.800781 C 42 -11.398438 55.796875 0 72.398438 0 C 94.199219 0 113.996094 -19.398438 125.796875 -53.199219 C 126.195312 -54.398438 126.398438 -55.398438 126.398438 -56.398438 C 126.398438 -62.398438 119.796875 -66.398438 113.398438 -66.398438 C 108.199219 -66.398438 103.199219 -64 101.398438 -58 Z M 101.398438 -58 "/></g></g></g><g fill="rgb(38.038635%, 40.779114%, 71.369934%)" fill-opacity="1"><g transform="translate(836.712459, 952.488642)"><g><path d="M 53.796875 -135.796875 C 62.796875 -135.796875 70.199219 -143.195312 70.199219 -152.394531 C 70.199219 -161.394531 62.796875 -168.597656 53.796875 -168.597656 C 44.800781 -168.597656 37.398438 -161.394531 37.398438 -152.394531 C 37.398438 -143.195312 44.800781 -135.796875 53.796875 -135.796875 Z M 26.800781 -33.800781 L 48.796875 -96.597656 C 49.597656 -99.199219 50.597656 -101.996094 50.597656 -103.996094 C 50.597656 -112.796875 44 -117.398438 37.199219 -117.398438 C 31 -117.398438 24.398438 -112.996094 21.199219 -103.597656 C 14.800781 -84.796875 6.398438 -61 0 -42.398438 C -1.199219 -38.398438 -2.800781 -33 -2.800781 -29.597656 C -2.800781 -10.800781 12.800781 0 31.199219 0 C 50.796875 0 72.398438 -12 86.398438 -53.398438 C 86.796875 -54.597656 86.996094 -55.796875 86.996094 -57 C 86.996094 -63.199219 80.996094 -67 75 -67 C 69.597656 -67 64.199219 -64.199219 61.796875 -58 C 52.398438 -32 41.800781 -23.800781 33.800781 -23.800781 C 29.199219 -23.800781 26.199219 -26.800781 26.199219 -30.597656 C 26.199219 -31.597656 26.398438 -32.597656 26.800781 -33.800781 Z M 26.800781 -33.800781 "/></g></g></g><g fill="rgb(38.038635%, 40.779114%, 71.369934%)" fill-opacity="1"><g transform="translate(891.910982, 952.488642)"><g><path d="M 101.199219 -56.398438 C 92.398438 -33.199219 71.398438 -23.800781 54.398438 -23.800781 C 39.800781 -23.800781 30.597656 -30.800781 30.597656 -40 C 30.597656 -41.800781 30.800781 -43.597656 31.597656 -45.597656 L 33.199219 -49.398438 C 39 -45.800781 46.199219 -43.398438 54.199219 -43.398438 C 72.398438 -43.398438 88.398438 -54.796875 93.796875 -72.796875 C 94.796875 -76.597656 95.398438 -80.398438 95.398438 -83.796875 C 95.398438 -102.796875 80.398438 -117.398438 57.796875 -117.398438 C 40 -117.398438 22.597656 -106.996094 15.601562 -86.996094 L 3.800781 -52.796875 C 2.199219 -48 1.199219 -43.199219 1.199219 -38.597656 C 1.199219 -14.800781 23.597656 0 52.796875 0 C 80.597656 0 112.195312 -13.601562 125.398438 -51.796875 C 125.996094 -53.398438 126.195312 -54.796875 126.195312 -56 C 126.195312 -62.199219 120.597656 -65.597656 114.597656 -65.597656 C 108.996094 -65.597656 102.996094 -62.597656 101.199219 -56.398438 Z M 57.199219 -93.796875 C 62.796875 -93.796875 66.398438 -89.199219 66.398438 -83.398438 C 66.398438 -81.796875 66.199219 -80.199219 65.597656 -78.597656 C 63.597656 -72 57.597656 -69.597656 51.597656 -69.597656 C 47.796875 -69.597656 44 -70.398438 41.199219 -72 L 45.398438 -83.996094 C 47.597656 -90.199219 52.597656 -93.796875 57.199219 -93.796875 Z M 57.199219 -93.796875 "/></g></g></g><g fill="rgb(38.038635%, 40.779114%, 71.369934%)" fill-opacity="1"><g transform="translate(986.708463, 952.488642)"><g><path d="M 111.597656 -57.597656 C 102.796875 -33.597656 91.796875 -23.800781 82.398438 -23.800781 C 78.796875 -23.800781 76.796875 -25.597656 76.796875 -29 C 76.796875 -30.398438 77.199219 -32 77.796875 -34 L 93.398438 -78.398438 C 94.796875 -82.398438 95.597656 -85.996094 95.597656 -89.398438 C 95.597656 -105.398438 81.996094 -117.398438 66 -117.398438 C 58.199219 -117.398438 52 -115.597656 46.800781 -111.796875 C 45.597656 -115.398438 40.597656 -117.398438 35.199219 -117.398438 C 29.597656 -117.398438 24.199219 -114.796875 22.199219 -109.199219 L -11.199219 -15.800781 C -11.800781 -14 -12 -12.398438 -12 -10.800781 C -12 -3.398438 -6.199219 0.398438 0.199219 0.398438 C 7.199219 0.398438 15.199219 -4 18.199219 -13 C 25.199219 -32.398438 34.800781 -59.796875 41.597656 -78.996094 C 47 -88.996094 54 -93.796875 59.597656 -93.796875 C 63.199219 -93.796875 65.796875 -91.398438 65.796875 -87.597656 C 65.796875 -86.199219 65.398438 -84.398438 64.796875 -82.597656 L 50.199219 -41.398438 C 48.597656 -36.800781 47.597656 -32.398438 47.597656 -28.199219 C 47.597656 -9.800781 62.796875 0 79.796875 0 C 100.199219 0 121.996094 -13.800781 135.796875 -52.796875 C 136.398438 -54.398438 136.796875 -56 136.796875 -57.398438 C 136.796875 -63.796875 130.996094 -67.199219 124.996094 -67.199219 C 119.597656 -67.199219 113.597656 -64.199219 111.597656 -57.597656 Z M 111.597656 -57.597656 "/></g></g></g><g fill="rgb(38.038635%, 40.779114%, 71.369934%)" fill-opacity="1"><g transform="translate(1091.705662, 952.488642)"><g><path d="M 127.195312 -67.199219 C 121.796875 -67.199219 116.195312 -64.398438 114.398438 -58 C 105.398438 -34 94.597656 -23.800781 85.597656 -23.800781 C 81.597656 -23.800781 79.398438 -26.597656 79.398438 -29.800781 C 79.398438 -31 79.597656 -32.199219 80.398438 -34.597656 L 121.195312 -152.394531 C 121.996094 -154.796875 122.996094 -158.195312 122.996094 -160.394531 C 122.996094 -168.996094 115.996094 -173.59375 108.996094 -173.59375 C 102.796875 -173.59375 96.996094 -168.996094 93.398438 -158.597656 L 75.199219 -106.996094 C 69.199219 -113.597656 60.398438 -117.398438 51 -117.398438 C 38 -117.398438 24 -110.195312 18.597656 -94.996094 L -0.398438 -41 C -1.800781 -37.199219 -2.398438 -33.199219 -2.398438 -29.597656 C -2.398438 -12 11.800781 0 29 0 C 38.398438 0 48.796875 -3.199219 56.796875 -11 C 63 -4.199219 72.597656 0 82.597656 0 C 102.398438 0 125.195312 -14.199219 138.597656 -53.398438 C 138.996094 -54.796875 139.398438 -56.199219 139.398438 -57.398438 C 139.398438 -63.597656 133.398438 -67.199219 127.195312 -67.199219 Z M 33.398438 -30.800781 C 29.597656 -31.800781 28.597656 -34.800781 28.597656 -38 C 28.597656 -40.597656 29.199219 -43 29.800781 -44.800781 L 41.199219 -78.199219 C 45.199219 -89.996094 50.597656 -91.996094 53.796875 -91.996094 C 57.597656 -91.996094 61.796875 -88.199219 61.796875 -81.398438 C 61.796875 -78.398438 61.199219 -74.597656 59.398438 -69.597656 L 51.199219 -46.597656 C 45.199219 -31.800781 37.199219 -30 33.398438 -30.800781 Z M 33.398438 -30.800781 "/></g></g></g><g fill="rgb(38.038635%, 40.779114%, 71.369934%)" fill-opacity="1"><g transform="translate(1199.102778, 952.488642)"><g><path d="M 106.199219 -56.597656 C 101.398438 -44.800781 94.398438 -36.597656 85.199219 -31.199219 C 85.597656 -33.800781 85.996094 -36.199219 85.996094 -38.800781 C 85.996094 -50.398438 79.796875 -61.398438 74.199219 -70.796875 C 70.199219 -77.597656 66.199219 -84.398438 65.398438 -90.597656 C 71 -92.996094 75.398438 -99.398438 75.398438 -105.398438 C 75.398438 -113.996094 68.796875 -121.996094 58.796875 -121.996094 C 51.199219 -121.996094 43.597656 -118.195312 39.800781 -110.398438 C 32 -95.199219 23.597656 -79.796875 15.601562 -64.796875 C 2.199219 -61.398438 -4.398438 -46.199219 -4.398438 -33.398438 C -4.398438 -13.800781 15.199219 1.398438 50.597656 1.398438 C 85.398438 1.398438 116.597656 -11.800781 130.597656 -52.199219 C 130.996094 -53 130.996094 -54 130.996094 -54.796875 C 130.996094 -60.597656 124.398438 -64.796875 117.996094 -64.796875 C 113.195312 -64.796875 108.398438 -62.398438 106.199219 -56.597656 Z M 42.800781 -62 L 44.597656 -65.796875 C 50.597656 -58.597656 55.398438 -49 55.398438 -39.597656 C 55.398438 -30.199219 50.398438 -22.398438 39.800781 -22 C 33 -22 27 -25 24.800781 -30.199219 C 26.398438 -29.800781 28 -29.800781 29.398438 -29.800781 C 41 -29.800781 47.796875 -39.597656 47.796875 -49.398438 C 47.796875 -54 46.199219 -58.597656 42.800781 -62 Z M 42.800781 -62 "/></g></g></g><g fill="rgb(38.038635%, 40.779114%, 71.369934%)" fill-opacity="1"><g transform="translate(674.823736, 1128.993171)"><g><path d="M 84.597656 -41.800781 C 84.597656 -41.597656 84.597656 -44.800781 83.796875 -48.597656 C 85.199219 -49.597656 86.597656 -51.199219 87.796875 -53 C 91.199219 -58 97.199219 -75.398438 97.199219 -83.398438 C 97.199219 -103.796875 80.398438 -117.398438 58.796875 -117.398438 C 40 -117.398438 22.199219 -106.996094 15.800781 -89.199219 L 1.199219 -48 C -0.601562 -43 -1.398438 -38 -1.398438 -33.597656 C -1.398438 -12.601562 16.597656 0 37 0 C 52.597656 0 66.796875 -5 75.199219 -19.398438 C 78.796875 -18.398438 82.996094 -17.800781 87.199219 -17.800781 C 110.796875 -17.800781 129.398438 -34.597656 136.195312 -55.597656 C 136.796875 -57.796875 137.195312 -59.796875 137.195312 -61.597656 C 137.195312 -69 131.796875 -73.199219 125.996094 -73.199219 C 120.597656 -73.199219 114.996094 -70 112.796875 -62.597656 C 108.398438 -50.199219 99.199219 -41.597656 87.398438 -41.597656 C 86.597656 -41.597656 85.398438 -41.597656 84.597656 -41.800781 Z M 66 -72.597656 C 65.398438 -70.796875 64.796875 -69.199219 64.597656 -67.597656 C 53.597656 -68.796875 43.800781 -59.796875 43.800781 -47.796875 C 44 -41 47.398438 -37.398438 51.199219 -34.199219 C 48.597656 -27.199219 42.800781 -23.800781 36.597656 -23.800781 C 28.800781 -23.800781 26.800781 -28.597656 26.800781 -33.398438 C 26.800781 -37.199219 27.800781 -40.800781 28.597656 -42.800781 L 42.800781 -83.398438 C 45.199219 -89.996094 52.199219 -93.796875 58.398438 -93.796875 C 64.597656 -93.796875 68.597656 -89.597656 68.597656 -84.996094 C 68.597656 -81.398438 67.398438 -76.796875 66 -72.597656 Z M 66 -72.597656 "/></g></g></g><g fill="rgb(38.038635%, 40.779114%, 71.369934%)" fill-opacity="1"><g transform="translate(779.220944, 1128.993171)"><g><path d="M 101.398438 -58 C 93.796875 -38.398438 83.597656 -23.800781 75.199219 -23.800781 C 72.398438 -23.800781 71 -26.398438 71 -29.199219 C 71 -30.398438 71.199219 -32 71.796875 -33.597656 L 83.597656 -66.398438 C 84.796875 -70.398438 85.597656 -74 85.597656 -77.398438 C 85.597656 -96.398438 61.597656 -104.398438 50.398438 -107.796875 C 51 -109.398438 51.199219 -111.195312 51.199219 -112.796875 C 51.199219 -121.996094 43 -129.796875 34 -129.796875 C 22.199219 -129.796875 15.199219 -119.398438 15.199219 -107.996094 C 15.199219 -102.996094 17 -97.796875 20.199219 -93.796875 L 5.601562 -54.398438 C 5.199219 -52.796875 5 -51.199219 5 -50 C 5 -43.398438 10.199219 -40 15.800781 -40 C 21.398438 -40 27.199219 -43.199219 29.597656 -49.597656 L 40.800781 -79.597656 C 46.398438 -77.796875 53.796875 -76.398438 53.796875 -69.597656 C 53.796875 -68.597656 53.597656 -67.398438 53.199219 -66 L 44.398438 -41.597656 C 42.800781 -37 42 -32.800781 42 -28.800781 C 42 -11.398438 55.796875 0 72.398438 0 C 94.199219 0 113.996094 -19.398438 125.796875 -53.199219 C 126.195312 -54.398438 126.398438 -55.398438 126.398438 -56.398438 C 126.398438 -62.398438 119.796875 -66.398438 113.398438 -66.398438 C 108.199219 -66.398438 103.199219 -64 101.398438 -58 Z M 101.398438 -58 "/></g></g></g><g fill="rgb(38.038635%, 40.779114%, 71.369934%)" fill-opacity="1"><g transform="translate(873.818394, 1128.993171)"><g><path d="M 101.199219 -56.398438 C 92.398438 -33.199219 71.398438 -23.800781 54.398438 -23.800781 C 39.800781 -23.800781 30.597656 -30.800781 30.597656 -40 C 30.597656 -41.800781 30.800781 -43.597656 31.597656 -45.597656 L 33.199219 -49.398438 C 39 -45.800781 46.199219 -43.398438 54.199219 -43.398438 C 72.398438 -43.398438 88.398438 -54.796875 93.796875 -72.796875 C 94.796875 -76.597656 95.398438 -80.398438 95.398438 -83.796875 C 95.398438 -102.796875 80.398438 -117.398438 57.796875 -117.398438 C 40 -117.398438 22.597656 -106.996094 15.601562 -86.996094 L 3.800781 -52.796875 C 2.199219 -48 1.199219 -43.199219 1.199219 -38.597656 C 1.199219 -14.800781 23.597656 0 52.796875 0 C 80.597656 0 112.195312 -13.601562 125.398438 -51.796875 C 125.996094 -53.398438 126.195312 -54.796875 126.195312 -56 C 126.195312 -62.199219 120.597656 -65.597656 114.597656 -65.597656 C 108.996094 -65.597656 102.996094 -62.597656 101.199219 -56.398438 Z M 57.199219 -93.796875 C 62.796875 -93.796875 66.398438 -89.199219 66.398438 -83.398438 C 66.398438 -81.796875 66.199219 -80.199219 65.597656 -78.597656 C 63.597656 -72 57.597656 -69.597656 51.597656 -69.597656 C 47.796875 -69.597656 44 -70.398438 41.199219 -72 L 45.398438 -83.996094 C 47.597656 -90.199219 52.597656 -93.796875 57.199219 -93.796875 Z M 57.199219 -93.796875 "/></g></g></g><g fill="rgb(38.038635%, 40.779114%, 71.369934%)" fill-opacity="1"><g transform="translate(968.615864, 1128.993171)"><g><path d="M 110.796875 -59.398438 C 107.398438 -50 102.398438 -44.597656 94.996094 -44.597656 C 88.398438 -44.597656 84.996094 -48.796875 84.996094 -54.199219 C 84.996094 -55.796875 85.398438 -57.796875 85.996094 -59.597656 C 96.796875 -79.199219 103.796875 -89.796875 103.796875 -100.796875 C 103.796875 -110.597656 98.199219 -117.398438 87.199219 -117.398438 C 67 -117.398438 52.597656 -88.996094 52.597656 -67.796875 C 52.597656 -63 53.398438 -58.597656 55 -54.597656 L 44 -38 C 41 -33.597656 34.199219 -25.398438 31.398438 -25.398438 C 30.800781 -25.398438 30.398438 -26 30.398438 -27.199219 C 30.398438 -29 30.597656 -30.800781 31.199219 -33 L 46.398438 -97.199219 C 47 -99.398438 47.199219 -101.398438 47.199219 -103.199219 C 47.199219 -112.796875 40.597656 -117.398438 33.597656 -117.398438 C 26.398438 -117.398438 19.199219 -112.796875 17.199219 -104.199219 L 2.601562 -39 C 1.800781 -35.398438 1.398438 -31.800781 1.398438 -28.597656 C 1.398438 -10.800781 12.800781 0 28.398438 0 C 42.597656 0 49.199219 -6.601562 62.398438 -21.800781 L 69.796875 -30.800781 C 75.398438 -24.199219 84.199219 -20.398438 94.796875 -20.398438 C 114.195312 -20.398438 128.796875 -33.398438 134.996094 -54 C 135.398438 -55.199219 135.398438 -56.199219 135.398438 -57.199219 C 135.398438 -63.796875 129.195312 -67.796875 122.996094 -67.796875 C 117.796875 -67.796875 112.796875 -65.199219 110.796875 -59.398438 Z M 110.796875 -59.398438 "/></g></g></g><g fill="rgb(38.038635%, 40.779114%, 71.369934%)" fill-opacity="1"><g transform="translate(1072.413058, 1128.993171)"><g><path d="M 101.199219 -56.398438 C 92.398438 -33.199219 71.398438 -23.800781 54.398438 -23.800781 C 39.800781 -23.800781 30.597656 -30.800781 30.597656 -40 C 30.597656 -41.800781 30.800781 -43.597656 31.597656 -45.597656 L 33.199219 -49.398438 C 39 -45.800781 46.199219 -43.398438 54.199219 -43.398438 C 72.398438 -43.398438 88.398438 -54.796875 93.796875 -72.796875 C 94.796875 -76.597656 95.398438 -80.398438 95.398438 -83.796875 C 95.398438 -102.796875 80.398438 -117.398438 57.796875 -117.398438 C 40 -117.398438 22.597656 -106.996094 15.601562 -86.996094 L 3.800781 -52.796875 C 2.199219 -48 1.199219 -43.199219 1.199219 -38.597656 C 1.199219 -14.800781 23.597656 0 52.796875 0 C 80.597656 0 112.195312 -13.601562 125.398438 -51.796875 C 125.996094 -53.398438 126.195312 -54.796875 126.195312 -56 C 126.195312 -62.199219 120.597656 -65.597656 114.597656 -65.597656 C 108.996094 -65.597656 102.996094 -62.597656 101.199219 -56.398438 Z M 57.199219 -93.796875 C 62.796875 -93.796875 66.398438 -89.199219 66.398438 -83.398438 C 66.398438 -81.796875 66.199219 -80.199219 65.597656 -78.597656 C 63.597656 -72 57.597656 -69.597656 51.597656 -69.597656 C 47.796875 -69.597656 44 -70.398438 41.199219 -72 L 45.398438 -83.996094 C 47.597656 -90.199219 52.597656 -93.796875 57.199219 -93.796875 Z M 57.199219 -93.796875 "/></g></g></g><g fill="rgb(38.038635%, 40.779114%, 71.369934%)" fill-opacity="1"><g transform="translate(1167.210504, 1128.993171)"><g><path d="M 101.398438 -58 C 93.796875 -38.398438 83.597656 -23.800781 75.199219 -23.800781 C 72.398438 -23.800781 71 -26.398438 71 -29.199219 C 71 -30.398438 71.199219 -32 71.796875 -33.597656 L 83.597656 -66.398438 C 84.796875 -70.398438 85.597656 -74 85.597656 -77.398438 C 85.597656 -96.398438 61.597656 -104.398438 50.398438 -107.796875 C 51 -109.398438 51.199219 -111.195312 51.199219 -112.796875 C 51.199219 -121.996094 43 -129.796875 34 -129.796875 C 22.199219 -129.796875 15.199219 -119.398438 15.199219 -107.996094 C 15.199219 -102.996094 17 -97.796875 20.199219 -93.796875 L 5.601562 -54.398438 C 5.199219 -52.796875 5 -51.199219 5 -50 C 5 -43.398438 10.199219 -40 15.800781 -40 C 21.398438 -40 27.199219 -43.199219 29.597656 -49.597656 L 40.800781 -79.597656 C 46.398438 -77.796875 53.796875 -76.398438 53.796875 -69.597656 C 53.796875 -68.597656 53.597656 -67.398438 53.199219 -66 L 44.398438 -41.597656 C 42.800781 -37 42 -32.800781 42 -28.800781 C 42 -11.398438 55.796875 0 72.398438 0 C 94.199219 0 113.996094 -19.398438 125.796875 -53.199219 C 126.195312 -54.398438 126.398438 -55.398438 126.398438 -56.398438 C 126.398438 -62.398438 119.796875 -66.398438 113.398438 -66.398438 C 108.199219 -66.398438 103.199219 -64 101.398438 -58 Z M 101.398438 -58 "/></g></g></g></svg>